<?xml version="1.0"?><svg fill="#000000" xmlns="http://www.w3.org/2000/svg"  viewBox="0 0 24 24" width="24px" height="24px">    <path d="M21.948,10.684l-2-6C19.812,4.275,19.431,4,19,4H5C4.569,4,4.188,4.275,4.052,4.684l-2,6C2.018,10.786,2,10.893,2,11v8 c0,0.552,0.447,1,1,1h18c0.553,0,1-0.448,1-1v-8C22,10.893,21.982,10.786,21.948,10.684z M5.721,6h12.559l1.333,4H4.387L5.721,6z M4,12.414l1.253,1.253C5.094,13.905,5,14.192,5,14.5C5,15.328,5.672,16,6.5,16c0.308,0,0.595-0.094,0.833-0.253L9.586,18H4V12.414z M14.414,18l2.253-2.253C16.905,15.906,17.192,16,17.5,16c0.828,0,1.5-0.672,1.5-1.5c0-0.308-0.094-0.595-0.253-0.833L20,12.414V18 H14.414z"/></svg>